<?xml version="1.0" standalone="no"?>
<!DOCTYPE svg PUBLIC "-//W3C//DTD SVG 20010904//EN"
 "http://www.w3.org/TR/2001/REC-SVG-20010904/DTD/svg10.dtd">
<svg version="1.0" xmlns="http://www.w3.org/2000/svg"
 width="201.000000pt" height="161.000000pt" viewBox="0 0 201.000000 161.000000"
 preserveAspectRatio="xMidYMid meet">

<g transform="translate(0.000000,161.000000) scale(0.100000,-0.100000)"
fill="#000000" stroke="none">
<path d="M394 1546 c-58 -18 -102 -54 -132 -106 -27 -45 -27 -45 -32 -310 l-5
-265 -53 -5 c-57 -6 -72 -18 -72 -62 0 -28 31 -58 61 -58 15 0 18 -17 21 -152
3 -124 7 -159 21 -187 25 -45 95 -119 130 -137 27 -15 28 -18 22 -64 -6 -43
-4 -50 15 -60 38 -21 71 -8 105 40 l32 45 511 3 511 2 17 -32 c34 -67 67 -83
116 -57 18 10 20 17 14 60 -6 46 -5 49 24 64 42 22 96 78 122 128 20 37 24 61
28 192 5 146 6 150 27 153 49 7 74 72 41 107 -6 6 -297 12 -816 15 l-807 5 -3
230 c-2 127 0 245 3 263 7 40 59 101 102 118 60 25 148 11 181 -28 11 -13 9
-22 -8 -50 -11 -18 -20 -46 -20 -61 0 -16 -4 -37 -10 -47 -12 -23 -3 -50 18
-50 8 0 75 35 148 78 109 62 134 81 134 100 0 12 -3 23 -7 23 -5 1 -17 3 -28
4 -12 1 -30 7 -42 14 -12 6 -42 11 -67 11 -34 0 -51 6 -71 24 -59 55 -156 77
-231 52z m167 -37 c39 -19 65 -46 55 -56 -3 -4 -16 3 -29 15 -76 71 -225 50
-285 -41 l-27 -40 -3 -256 c-2 -142 -7 -260 -13 -265 -5 -6 -9 87 -9 247 0
293 2 303 81 371 66 56 150 66 230 25z m188 -68 c7 -5 11 -13 7 -19 -7 -11
-164 -102 -177 -102 -32 0 18 95 61 117 29 15 89 17 109 4z m71 -26 c0 -2 -44
-30 -97 -61 -54 -31 -113 -66 -132 -77 -19 -11 -32 -15 -30 -9 4 12 236 152
251 152 5 0 8 -2 8 -5z m1070 -615 c0 -20 -5 -20 -872 -18 -822 3 -873 4 -876
21 -3 16 44 17 872 17 870 0 876 0 876 -20z m-76 -195 c-1 -111 -4 -137 -23
-180 -29 -65 -64 -102 -126 -131 l-50 -24 -601 0 -602 0 -53 28 c-60 31 -113
93 -129 150 -5 20 -10 94 -10 165 l0 127 798 -2 797 -3 -1 -130z m-1364 -380
c0 -2 -5 -16 -12 -30 -18 -41 -53 -30 -41 13 3 15 13 22 29 22 13 0 24 -2 24
-5z m1184 -11 c10 -26 7 -44 -8 -44 -14 0 -46 36 -46 52 0 15 48 8 54 -8z"/>
<path d="M253 533 c-9 -24 15 -103 43 -141 40 -52 95 -83 151 -85 69 -3 65 23
-7 39 -69 15 -135 79 -145 140 -4 22 -8 45 -10 52 -6 17 -24 15 -32 -5z"/>
<path d="M1746 538 c-2 -7 -7 -29 -10 -48 -14 -76 -96 -150 -169 -150 -20 0
-27 -5 -27 -20 0 -16 7 -20 30 -20 100 0 219 123 208 215 -3 30 -25 46 -32 23z"/>
<path d="M1389 1351 c-26 -21 -19 -56 13 -67 30 -9 64 27 49 54 -15 29 -37 33
-62 13z m41 -26 c0 -8 -7 -15 -15 -15 -8 0 -15 7 -15 15 0 8 7 15 15 15 8 0
15 -7 15 -15z"/>
<path d="M810 1322 c0 -14 39 -46 47 -39 3 4 -2 16 -12 27 -19 21 -35 26 -35
12z"/>
<path d="M720 1275 c0 -12 24 -55 32 -55 11 0 10 17 -2 41 -9 17 -30 27 -30
14z"/>
<path d="M1535 1255 c-14 -13 -25 -33 -25 -44 0 -20 43 -61 65 -61 26 0 58 36
58 65 0 30 -33 65 -60 65 -7 0 -25 -11 -38 -25z m70 -40 c0 -27 -3 -30 -30
-30 -21 0 -31 5 -33 18 -6 33 6 49 35 45 24 -3 28 -8 28 -33z"/>
<path d="M900 1232 c0 -14 39 -46 47 -39 3 4 -2 16 -12 27 -19 21 -35 26 -35
12z"/>
<path d="M634 1208 c3 -13 6 -29 6 -35 0 -7 5 -13 10 -13 11 0 13 30 4 54 -9
25 -27 19 -20 -6z"/>
<path d="M1307 1202 c-37 -41 -6 -112 48 -112 55 0 87 77 47 113 -25 22 -75
21 -95 -1z m83 -22 c26 -48 -25 -89 -63 -51 -18 17 -19 24 -9 46 14 31 56 34
72 5z"/>
<path d="M780 1161 c0 -5 8 -19 18 -32 23 -28 37 -11 16 19 -15 22 -34 29 -34
13z"/>
<path d="M990 1142 c0 -14 46 -53 53 -45 4 3 -3 17 -15 30 -22 23 -38 30 -38
15z"/>
<path d="M669 1073 c4 -15 13 -29 21 -31 9 -3 11 1 7 12 -4 10 -7 24 -7 32 0
8 -6 14 -14 14 -11 0 -12 -7 -7 -27z"/>
<path d="M1483 1082 c-31 -5 -73 -58 -73 -92 0 -16 11 -42 26 -59 21 -26 33
-31 69 -31 36 0 48 5 69 31 33 39 33 79 1 117 -25 30 -52 40 -92 34z m72 -47
c30 -30 31 -54 4 -89 -42 -53 -122 -23 -122 46 0 62 73 89 118 43z"/>
<path d="M855 1030 c13 -25 35 -41 35 -25 0 16 -26 55 -37 55 -11 0 -11 -6 2
-30z"/>
<path d="M1662 1038 c-30 -30 0 -75 42 -64 29 7 40 31 26 57 -12 21 -50 25
-68 7z m46 -25 c-5 -25 -28 -28 -28 -4 0 12 6 21 16 21 9 0 14 -7 12 -17z"/>
<path d="M1262 1019 c-12 -5 -27 -20 -34 -34 -10 -22 -8 -30 9 -53 25 -33 47
-38 77 -18 61 39 17 130 -52 105z m56 -48 c5 -32 -23 -54 -49 -40 -19 10 -26
49 -12 63 4 4 19 6 33 4 18 -2 26 -10 28 -27z"/>
<path d="M700 963 c0 -28 10 -53 21 -53 14 0 11 34 -6 56 -14 19 -14 19 -15
-3z"/>
</g>
</svg>
