<?xml version="1.0" standalone="no"?>
<!DOCTYPE svg PUBLIC "-//W3C//DTD SVG 20010904//EN"
 "http://www.w3.org/TR/2001/REC-SVG-20010904/DTD/svg10.dtd">
<svg version="1.0" xmlns="http://www.w3.org/2000/svg"
 width="820.000000pt" height="917.000000pt" viewBox="0 0 820.000000 917.000000"
 preserveAspectRatio="xMidYMid meet">

<g transform="translate(0.000000,917.000000) scale(0.100000,-0.100000)"
fill="#000000" stroke="none">
<path d="M2110 7521 c-1097 -687 -1996 -1253 -1998 -1259 -3 -11 63 -120 195
-319 l75 -113 29 16 c77 39 754 458 2149 1327 904 564 1545 957 1560 957 5 0
292 -177 637 -393 345 -216 1049 -657 1563 -979 800 -501 1326 -828 1472 -916
l37 -23 67 103 c84 127 194 317 194 335 0 17 28 -1 -1085 698 -506 317 -1050
660 -1210 760 -1289 810 -1667 1046 -1677 1049 -7 3 -911 -557 -2008 -1243z"/>
<path d="M1275 5568 c-3 -7 -4 -949 -3 -2093 l3 -2080 268 -3 267 -2 0 2095 0
2095 -265 0 c-203 0 -267 -3 -270 -12z"/>
<path d="M6405 5568 c-3 -7 -4 -949 -3 -2093 l3 -2080 268 -3 267 -2 0 2095 0
2095 -265 0 c-203 0 -267 -3 -270 -12z"/>
<path d="M4265 5543 c-67 -9 -230 -55 -308 -86 -179 -72 -304 -164 -492 -358
-92 -95 -131 -145 -166 -209 -65 -117 -137 -289 -162 -385 -11 -44 -25 -86
-30 -92 -7 -9 -46 -13 -133 -13 -68 0 -124 -2 -124 -4 0 -2 -16 -74 -35 -162
-19 -87 -35 -160 -35 -161 0 -2 65 -3 145 -3 l145 0 0 -150 0 -150 -100 0
c-123 0 -119 5 -158 -186 l-29 -139 51 -7 c28 -3 96 -7 151 -7 55 -1 105 -5
111 -9 6 -4 27 -61 48 -126 71 -231 159 -395 299 -558 192 -222 462 -381 757
-444 118 -25 503 -26 635 -1 79 14 304 83 334 101 11 7 17 666 6 666 -3 0 -35
-25 -72 -55 -81 -66 -201 -127 -308 -156 -100 -27 -339 -37 -441 -20 -190 33
-417 205 -499 378 -49 104 -81 211 -66 226 9 9 144 13 496 15 l485 4 9 36 c6
21 17 78 26 127 8 50 18 100 20 111 3 15 -1 24 -13 29 -9 4 -255 11 -545 15
-291 4 -530 10 -532 12 -2 2 -7 68 -11 146 l-7 142 364 1 c200 1 467 4 594 8
l230 6 22 100 c12 55 25 126 29 158 l7 57 -591 0 c-368 0 -593 4 -597 10 -10
17 39 143 90 230 104 178 262 299 455 352 120 32 307 32 435 -1 112 -29 205
-70 261 -116 l43 -35 11 37 c14 52 76 343 90 423 6 36 10 86 8 110 l-3 43
-113 38 c-63 21 -148 43 -189 49 -70 9 -532 12 -598 3z"/>
<path d="M277 753 c-4 -3 -7 -125 -7 -270 l0 -263 3835 0 3835 0 0 270 0 270
-3828 0 c-2106 0 -3832 -3 -3835 -7z"/>
</g>
</svg>
