<?xml version="1.0" standalone="no"?>
<!DOCTYPE svg PUBLIC "-//W3C//DTD SVG 20010904//EN"
 "http://www.w3.org/TR/2001/REC-SVG-20010904/DTD/svg10.dtd">
<svg version="1.0" xmlns="http://www.w3.org/2000/svg"
 width="180.000000pt" height="162.000000pt" viewBox="0 0 180.000000 162.000000"
 preserveAspectRatio="xMidYMid meet">

<g transform="translate(0.000000,162.000000) scale(0.100000,-0.100000)"
fill="#000000" stroke="none">
<path d="M60 800 l0 -730 835 0 835 0 0 730 0 730 -835 0 -835 0 0 -730z m980
490 l5 -165 35 0 35 0 5 165 5 165 260 0 260 0 3 -653 2 -652 -265 0 -265 0 0
375 0 375 -40 0 -40 0 0 -160 0 -160 -170 0 -170 0 0 -40 0 -40 170 0 170 0 0
-175 0 -175 -450 0 -450 0 0 175 0 175 165 0 165 0 0 40 0 40 -165 0 -165 0 0
433 c0 239 3 437 7 440 3 4 205 6 447 5 l441 -3 5 -165z"/>
<path d="M790 1275 c-18 -21 -4 -32 21 -17 20 13 39 9 39 -8 0 -5 -18 -30 -40
-55 -22 -25 -40 -48 -40 -51 0 -2 25 -4 55 -4 59 0 76 17 23 22 l-33 3 21 20
c35 33 46 62 34 85 -13 24 -62 27 -80 5z"/>
<path d="M397 1133 c-4 -3 -7 -55 -7 -115 l0 -108 30 0 30 0 0 71 c0 74 9 103
36 113 33 13 44 -12 44 -100 l0 -84 30 0 30 0 0 78 c0 64 3 82 19 96 22 20 47
12 55 -17 3 -12 6 -52 6 -89 0 -66 1 -68 25 -68 25 0 25 0 25 99 0 92 -2 101
-22 115 -29 20 -67 20 -96 0 -21 -15 -25 -15 -41 0 -22 20 -60 21 -88 1 -19
-13 -22 -13 -27 0 -5 15 -37 20 -49 8z"/>
</g>
</svg>
